<svg width="133" height="70" viewBox="0 0 133 70" fill="none" xmlns="http://www.w3.org/2000/svg">
<g clip-path="url(#clip0_88:529)">
<path d="M3.58605 62.8275C5.59424 62.8275 6.91392 64.3767 6.91392 66.3849C6.91392 68.3931 5.59424 69.9423 3.58605 69.9423C1.57785 69.9423 0.258179 68.3931 0.258179 66.3849C0.258179 64.348 1.57785 62.8275 3.58605 62.8275ZM3.58605 63.3439C1.92211 63.3439 0.860638 64.6349 0.860638 66.3562C0.860638 68.0775 1.92211 69.3685 3.58605 69.3685C5.22129 69.3685 6.31146 68.0775 6.31146 66.3562C6.31146 64.6349 5.22129 63.3439 3.58605 63.3439ZM12.5369 66.9587H11.0164V69.7988H10.4426V62.9423H12.9959C14.1721 62.9423 15.0901 63.6882 15.0901 64.9505C15.0901 66.1841 14.2008 66.9013 13.1967 66.93L15.1762 69.7988H14.459L12.5369 66.9587ZM12.9385 63.4587H11.0164V66.4136H12.9385C13.8565 66.4136 14.459 65.7824 14.459 64.9218C14.459 64.0611 13.8565 63.4587 12.9385 63.4587ZM22.9221 68.1062H19.2787L18.5901 69.7988H17.9303L20.7418 62.9423H21.459L24.2705 69.7988H23.6106L22.9221 68.1062ZM19.4508 67.5611H22.75L21.1147 63.4874L19.4508 67.5611ZM27.9139 63.8603V69.7988H27.3401V62.9423H27.9426L32.2459 68.7947V62.9423H32.8197V69.7988H32.2459L27.9139 63.8603ZM39.8197 62.8275C40.9672 62.8275 41.7705 63.2865 42.4016 64.0037L41.9713 64.3193C41.4836 63.7455 40.709 63.3726 39.8197 63.3726C38.2131 63.3726 36.9508 64.6062 36.9508 66.3849C36.9508 68.1636 38.1844 69.3972 39.8197 69.3972C40.7377 69.3972 41.4549 68.9382 41.8279 68.5652V66.93H39.2172V66.3849H42.4016V68.7947C41.7992 69.4833 40.8811 69.9423 39.791 69.9423C37.8401 69.9423 36.3197 68.5078 36.3197 66.3849C36.3197 64.2619 37.8688 62.8275 39.8197 62.8275ZM45.959 62.9423H50.3197V63.4874H46.5615V66.0406H50.2623V66.5857H46.5615V69.3111H50.3197V69.8562H45.959V62.9423ZM58.2951 66.3562C58.2951 64.2333 59.8442 62.7988 61.7664 62.7988C62.8852 62.7988 63.7172 63.2865 64.291 64.0037L63.8033 64.3193C63.3729 63.7169 62.627 63.3152 61.7664 63.3152C60.1598 63.3152 58.9262 64.5488 58.9262 66.3275C58.9262 68.1062 60.1598 69.3398 61.7664 69.3398C62.5983 69.3398 63.3729 68.9382 63.8033 68.3357L64.291 68.6513C63.6885 69.3972 62.8852 69.8849 61.7664 69.8849C59.8442 69.9136 58.2951 68.4792 58.2951 66.3562ZM70.6024 62.8275C72.6106 62.8275 73.9303 64.3767 73.9303 66.3849C73.9303 68.3931 72.6106 69.9423 70.6024 69.9423C68.5942 69.9423 67.2746 68.3931 67.2746 66.3849C67.2746 64.348 68.5942 62.8275 70.6024 62.8275ZM70.6024 63.3439C68.9385 63.3439 67.877 64.6349 67.877 66.3562C67.877 68.0775 68.9385 69.3685 70.6024 69.3685C72.2377 69.3685 73.3279 68.0775 73.3279 66.3562C73.3279 64.6349 72.2664 63.3439 70.6024 63.3439ZM77.459 62.9423H78.0615V67.1595C78.0615 68.5365 78.7787 69.3972 80.1557 69.3972C81.5328 69.3972 82.25 68.5652 82.25 67.1595V62.9423H82.8524V67.1882C82.8524 68.8808 81.9344 69.9423 80.1844 69.9423C78.4344 69.9423 77.5164 68.8808 77.5164 67.1882V62.9423H77.459ZM87.1557 63.8603V69.7988H86.5819V62.9423H87.1844L91.4877 68.7947V62.9423H92.0615V69.7988H91.4877L87.1557 63.8603ZM97.5983 63.4587H95.3606V62.9136H100.439V63.4587H98.2008V69.7988H97.5983V63.4587ZM105.746 66.8726L103.02 62.9423H103.738L106.061 66.3275L108.385 62.9423H109.102L106.377 66.8726V69.7988H105.775L105.746 66.8726ZM122.672 63.6882L120.176 69.7701H119.947L117.422 63.6882V69.7701H116.848V62.9136H117.709L120.061 68.5939L122.385 62.9136H123.275V69.7701H122.672V63.6882ZM127.033 62.9423H129.213C131.336 62.9423 132.684 64.4914 132.684 66.3849C132.684 68.2783 131.336 69.8275 129.213 69.8275H127.033V62.9423ZM129.242 69.2537C131.049 69.2537 132.082 67.9628 132.082 66.3562C132.082 64.7496 131.049 63.4587 129.242 63.4587H127.635V69.2537H129.242Z" fill="#FFFBF9"/>
<path d="M31.4713 1.4636V0.115234H30.1229C23.9549 0.115234 18.9344 5.13573 18.9344 11.3038V12.6521H20.2828C26.4508 12.6521 31.4713 7.63163 31.4713 1.4636ZM129.758 22.9513C127.807 19.939 125.082 17.8447 121.639 16.6398C119.229 15.7792 115.357 15.3488 109.992 15.3488H102.074L102.619 18.8488H108.529C113.664 18.8488 117.365 19.1931 119.574 19.8816C122.557 20.7997 124.881 22.4636 126.545 24.9021C128.209 27.3406 129.041 30.2956 129.041 33.7382C129.041 37.0374 128.266 39.7915 126.746 42.0865C125.225 44.3816 123.102 45.9308 120.406 46.8202C118.484 47.4226 115.07 47.7382 110.135 47.7382H105.344L105.861 51.1234H115.758C118.254 51.1234 120.721 50.6931 123.045 49.7751C123.475 49.6029 123.934 49.4021 124.336 49.1726C126.803 47.8816 128.811 45.8734 130.361 43.148C131.91 40.4226 132.684 37.2669 132.684 33.6808C132.684 29.521 131.738 25.9349 129.758 22.9513ZM95.0737 15.607L81.3893 45.1275L67.7336 15.607H66.4139L60.9057 51.9841H64.4918L68.1065 25.7628L81.0738 51.9841H81.7336L94.6721 25.7628L98.3156 51.9841H101.902L96.3934 15.607H95.0737ZM45.6434 19.9964C48.082 18.6193 50.7213 17.9308 53.5615 17.9308C56.1721 17.9308 58.5533 18.4472 60.7336 19.5087C60.877 19.5947 61.0205 19.6521 61.1639 19.7382L61.709 16.0374C59.2418 14.9759 56.4877 14.4308 53.5041 14.4308C47.9672 14.4308 43.377 16.2095 39.7049 19.7956C38.1557 21.3161 36.9221 22.98 36.0328 24.7874C35.1434 23.0087 33.9385 21.3447 32.418 19.8529C28.7746 16.2382 24.2418 14.4308 18.8197 14.4308C15.4918 14.4308 12.3647 15.2628 9.49589 16.9267C6.62703 18.5906 4.36064 20.8857 2.69671 23.812C1.03277 26.7382 0.200806 29.9226 0.200806 33.3652C0.200806 38.5292 2.03687 42.9185 5.68031 46.5333C9.32376 50.148 13.7992 51.9841 19.1065 51.9841C24.3565 51.9841 28.7746 50.1767 32.418 46.5046C33.9385 44.9841 35.1147 43.3488 36.0041 41.5702C36.7213 43.062 37.6106 44.439 38.7295 45.73C42.3442 49.8898 47.2787 51.9841 53.5328 51.9841C54.5369 51.9841 55.541 51.9267 56.4877 51.7833L57.0041 48.2833C55.9713 48.4841 54.8811 48.5988 53.7623 48.5988C49.2008 48.5988 45.4426 47.1357 42.459 44.2095C39.4754 41.2833 37.9836 37.6685 37.9836 33.3079C37.9836 30.439 38.6434 27.8284 39.9918 25.5046C41.3401 23.2095 43.2049 21.3734 45.6434 19.9964ZM32.2459 40.9677C30.9262 43.2915 29.0901 45.1562 26.709 46.5046C24.3279 47.8529 21.7746 48.5128 18.9918 48.5128C14.832 48.5128 11.2746 47.0497 8.34835 44.1234C5.39343 41.1972 3.93031 37.6111 3.93031 33.3652C3.93031 30.4964 4.59015 27.8857 5.93851 25.562C7.25818 23.2382 9.12294 21.3734 11.5041 19.9964C13.8852 18.6193 16.3811 17.9308 19.0205 17.9308C21.7172 17.9308 24.2705 18.6193 26.6516 19.9964C29.0615 21.3734 30.9262 23.2095 32.2459 25.5046C33.5656 27.7997 34.2254 30.3816 34.2254 33.1931C34.2254 36.0333 33.5656 38.6439 32.2459 40.9677Z" fill="#FFFBF9"/>
</g>
<defs>
<clipPath id="clip0_88:529">
<rect width="132.828" height="70" fill="white"/>
</clipPath>
</defs>
</svg>
