<svg width="238" height="171" viewBox="0 0 238 171" fill="none" xmlns="http://www.w3.org/2000/svg">
<path d="M148.698 6C119.898 19.6 120.031 42.3333 123.698 52H202.198L194.698 43.1616C194.698 43.1616 189.698 28.3384 169.198 26.5C148.698 24.6616 148.698 6 148.698 6Z" stroke="#10B3F0" stroke-width="7"/>
<mask id="path-2-inside-1_158_97" fill="white">
<rect x="88" y="45" width="136" height="37" rx="4"/>
</mask>
<rect x="88" y="45" width="136" height="37" rx="4" fill="white" stroke="#10B3F0" stroke-width="14" mask="url(#path-2-inside-1_158_97)"/>
<path d="M78.5158 83.5698C78.1777 80.3244 80.7232 77.5 83.9862 77.5H228.014C231.277 77.5 233.822 80.3244 233.484 83.5698L225.359 161.57C225.067 164.372 222.706 166.5 219.889 166.5H92.1112C89.2942 166.5 86.9326 164.372 86.6408 161.57L78.5158 83.5698Z" fill="white" stroke="#10B3F0" stroke-width="7"/>
<path d="M138 101.706V101H137.294C134.064 101 131.435 103.629 131.435 106.86V107.566H132.141C135.371 107.566 138 104.936 138 101.706ZM189.468 112.959C188.446 111.382 187.019 110.285 185.216 109.654C183.954 109.203 181.926 108.978 179.117 108.978H174.971L175.256 110.811H178.351C181.04 110.811 182.978 110.991 184.135 111.352C185.697 111.833 186.914 112.704 187.785 113.981C188.656 115.258 189.092 116.806 189.092 118.609C189.092 120.336 188.686 121.779 187.89 122.981C187.094 124.183 185.982 124.994 184.57 125.46C183.564 125.775 181.776 125.941 179.192 125.941H176.683L176.954 127.713H182.137C183.444 127.713 184.735 127.488 185.952 127.007C186.178 126.917 186.418 126.812 186.628 126.692C187.92 126.016 188.972 124.964 189.783 123.537C190.594 122.109 191 120.457 191 118.579C191 116.4 190.504 114.522 189.468 112.959ZM171.305 109.113L164.139 124.573L156.989 109.113H156.298L153.413 128.164H155.291L157.184 114.432L163.974 128.164H164.32L171.095 114.432L173.003 128.164H174.881L171.996 109.113H171.305ZM145.421 111.412C146.698 110.691 148.08 110.33 149.567 110.33C150.934 110.33 152.181 110.601 153.323 111.156C153.398 111.202 153.473 111.232 153.548 111.277L153.834 109.339C152.542 108.783 151.1 108.497 149.537 108.497C146.638 108.497 144.234 109.429 142.311 111.307C141.5 112.103 140.854 112.974 140.389 113.921C139.923 112.989 139.292 112.118 138.496 111.337C136.588 109.444 134.214 108.497 131.375 108.497C129.632 108.497 127.995 108.933 126.493 109.804C124.99 110.676 123.804 111.878 122.932 113.41C122.061 114.943 121.625 116.61 121.625 118.413C121.625 121.118 122.587 123.416 124.495 125.309C126.402 127.203 128.746 128.164 131.525 128.164C134.274 128.164 136.588 127.218 138.496 125.294C139.292 124.498 139.908 123.642 140.374 122.71C140.749 123.492 141.215 124.213 141.801 124.889C143.694 127.067 146.277 128.164 149.552 128.164C150.078 128.164 150.604 128.134 151.1 128.059L151.37 126.226C150.829 126.331 150.258 126.391 149.673 126.391C147.284 126.391 145.316 125.625 143.754 124.093C142.191 122.56 141.41 120.667 141.41 118.383C141.41 116.881 141.756 115.514 142.462 114.297C143.168 113.095 144.144 112.133 145.421 111.412ZM138.406 122.395C137.715 123.612 136.753 124.588 135.506 125.294C134.259 126.001 132.922 126.346 131.465 126.346C129.287 126.346 127.424 125.58 125.892 124.047C124.344 122.515 123.578 120.637 123.578 118.413C123.578 116.911 123.924 115.544 124.63 114.327C125.321 113.11 126.297 112.133 127.544 111.412C128.791 110.691 130.098 110.33 131.48 110.33C132.892 110.33 134.229 110.691 135.476 111.412C136.738 112.133 137.715 113.095 138.406 114.297C139.097 115.499 139.442 116.851 139.442 118.323C139.442 119.811 139.097 121.178 138.406 122.395Z" fill="#FE6F61"/>
<path d="M123.368 134.274C124.419 134.274 125.111 135.085 125.111 136.137C125.111 137.189 124.419 138 123.368 138C122.316 138 121.625 137.189 121.625 136.137C121.625 135.07 122.316 134.274 123.368 134.274ZM123.368 134.544C122.497 134.544 121.941 135.22 121.941 136.122C121.941 137.023 122.497 137.699 123.368 137.699C124.224 137.699 124.795 137.023 124.795 136.122C124.795 135.22 124.224 134.544 123.368 134.544ZM128.055 136.437H127.259V137.925H126.958V134.334H128.295C128.911 134.334 129.392 134.725 129.392 135.386C129.392 136.032 128.926 136.407 128.4 136.422L129.437 137.925H129.061L128.055 136.437ZM128.265 134.604H127.259V136.152H128.265C128.746 136.152 129.061 135.821 129.061 135.371C129.061 134.92 128.746 134.604 128.265 134.604ZM133.493 137.038H131.585L131.225 137.925H130.879L132.351 134.334H132.727L134.199 137.925H133.854L133.493 137.038ZM131.675 136.753H133.403L132.547 134.619L131.675 136.753ZM136.107 134.815V137.925H135.807V134.334H136.122L138.376 137.399V134.334H138.676V137.925H138.376L136.107 134.815ZM142.342 134.274C142.942 134.274 143.363 134.514 143.694 134.89L143.468 135.055C143.213 134.755 142.807 134.559 142.342 134.559C141.5 134.559 140.839 135.205 140.839 136.137C140.839 137.068 141.485 137.714 142.342 137.714C142.822 137.714 143.198 137.474 143.393 137.279V136.422H142.026V136.137H143.694V137.399C143.378 137.759 142.897 138 142.326 138C141.305 138 140.509 137.249 140.509 136.137C140.509 135.025 141.32 134.274 142.342 134.274ZM145.556 134.334H147.84V134.619H145.872V135.957H147.81V136.242H145.872V137.669H147.84V137.955H145.556V134.334ZM152.016 136.122C152.016 135.01 152.827 134.259 153.834 134.259C154.42 134.259 154.855 134.514 155.156 134.89L154.9 135.055C154.675 134.74 154.285 134.529 153.834 134.529C152.993 134.529 152.347 135.175 152.347 136.107C152.347 137.038 152.993 137.684 153.834 137.684C154.27 137.684 154.675 137.474 154.9 137.158L155.156 137.324C154.84 137.714 154.42 137.97 153.834 137.97C152.827 137.985 152.016 137.234 152.016 136.122ZM158.461 134.274C159.512 134.274 160.203 135.085 160.203 136.137C160.203 137.189 159.512 138 158.461 138C157.409 138 156.718 137.189 156.718 136.137C156.718 135.07 157.409 134.274 158.461 134.274ZM158.461 134.544C157.59 134.544 157.034 135.22 157.034 136.122C157.034 137.023 157.59 137.699 158.461 137.699C159.317 137.699 159.888 137.023 159.888 136.122C159.888 135.22 159.332 134.544 158.461 134.544ZM162.051 134.334H162.367V136.542C162.367 137.264 162.742 137.714 163.463 137.714C164.184 137.714 164.56 137.279 164.56 136.542V134.334H164.876V136.558C164.876 137.444 164.395 138 163.478 138C162.562 138 162.081 137.444 162.081 136.558V134.334H162.051ZM167.129 134.815V137.925H166.828V134.334H167.144L169.397 137.399V134.334H169.698V137.925H169.397L167.129 134.815ZM172.597 134.604H171.425V134.319H174.084V134.604H172.913V137.925H172.597V134.604ZM176.864 136.392L175.436 134.334H175.812L177.029 136.107L178.246 134.334H178.621L177.194 136.392V137.925H176.879L176.864 136.392ZM185.727 134.725L184.42 137.91H184.3L182.978 134.725V137.91H182.677V134.319H183.128L184.36 137.294L185.577 134.319H186.042V137.91H185.727V134.725ZM188.01 134.334H189.152C190.264 134.334 190.97 135.145 190.97 136.137C190.97 137.128 190.264 137.94 189.152 137.94H188.01V134.334ZM189.167 137.639C190.114 137.639 190.654 136.963 190.654 136.122C190.654 135.28 190.114 134.604 189.167 134.604H188.326V137.639H189.167Z" fill="#D6BEA5"/>
<rect x="83" y="60" width="145" height="4" rx="2" fill="#10B3F0"/>
<path d="M65 167C31.3106 167 4 139.689 4 106C4 72.3106 31.3106 45 65 45" stroke="#10B3F0" stroke-width="7"/>
</svg>
