<svg width="90" height="90" viewBox="0 0 90 90" fill="none" xmlns="http://www.w3.org/2000/svg">
<g clip-path="url(#clip0_158_161)">
<path d="M82.0663 12.6939C76.9503 7.57769 70.1482 4.76007 62.9129 4.76007C56.249 4.76007 49.9525 7.15039 45.0024 11.525C41.0887 8.06546 36.3272 5.84124 31.1323 5.06152C25.4902 4.21483 19.834 5.13183 14.7764 7.71409C13.9118 8.15545 13.5687 9.2143 14.0102 10.0789C14.4517 10.9437 15.5108 11.2868 16.3749 10.8451C20.7749 8.59857 25.6974 7.80075 30.6104 8.53811C35.6196 9.28988 40.1662 11.5865 43.7595 15.1798C44.0893 15.5094 44.5363 15.6947 45.0024 15.6947C45.4686 15.6947 45.9156 15.5094 46.2453 15.1798C50.6973 10.7277 56.6167 8.27586 62.9129 8.27586C69.209 8.27586 75.1285 10.7279 79.5804 15.18C84.0325 19.6321 86.4844 25.5514 86.4844 31.8475C86.4844 38.1437 84.0325 44.063 79.5804 48.5151L47.3302 80.7651C46.7085 81.3868 45.8816 81.7292 45.0023 81.7292C44.123 81.7292 43.2962 81.3868 42.6745 80.7651L10.4243 48.5147C6.83133 44.9218 4.53452 40.3751 3.78274 35.3663C3.04538 30.4537 3.84303 25.5312 6.08922 21.1311C6.53076 20.2665 6.18765 19.2078 5.32303 18.7663C4.45894 18.3252 3.39991 18.668 2.95837 19.5326C0.376464 24.5903 -0.540536 30.2457 0.306331 35.8882C1.1706 41.6461 3.80981 46.872 7.93851 51.0005L40.1887 83.2509C41.4745 84.5367 43.1841 85.2447 45.0024 85.2447C46.821 85.2447 48.5303 84.5367 49.8163 83.2509L82.0667 51.0005C87.1827 45.8845 90.0003 39.0823 90.0003 31.8472C90.0003 24.6121 87.1825 17.8099 82.0663 12.6939Z" fill="#10B3F0"/>
<path d="M65.4007 25.0526C65.5954 23.0475 65.5346 19.4887 62.9367 18.1825C58.8794 16.1429 53.3454 21.8618 49.9749 28.5648C49.0752 30.3544 48.3387 32.1877 47.8061 33.9512C46.9019 33.755 45.9644 33.649 45.0024 33.649C44.0404 33.649 43.103 33.755 42.1988 33.9512C41.6662 32.1877 40.9296 30.3544 40.0298 28.5648C36.6594 21.8618 31.1262 16.1425 27.068 18.1825C24.4703 19.4887 24.4093 23.0475 24.604 25.0526C24.886 27.9519 25.9751 31.406 27.6706 34.7787C29.1091 37.6394 30.8613 40.1918 32.6794 42.0936C32.1032 43.5756 31.7836 45.1844 31.7836 46.8676C31.7836 46.944 31.7845 47.0214 31.7863 47.1003C29.5543 49.1691 28.2914 52.0414 28.2914 55.1169C28.2914 61.1533 33.2021 66.0641 39.2384 66.0641C41.2763 66.0641 43.2796 65.4878 45.0022 64.4219C46.7247 65.4876 48.728 66.0641 50.7659 66.0641C56.8023 66.0641 61.7131 61.1533 61.7131 55.1169C61.7131 52.0414 60.4502 49.169 58.2181 47.1003C58.2199 47.0216 58.2207 46.944 58.2207 46.8678C58.2207 45.1848 57.9012 43.5757 57.325 42.094C59.143 40.1921 60.8953 37.6399 62.3338 34.7791C64.0296 31.406 65.1187 27.9519 65.4007 25.0526ZM30.8116 33.1996C29.3277 30.2484 28.3404 27.155 28.1031 24.7124C27.8929 22.5483 28.3253 21.4853 28.6473 21.3234C29.5293 20.878 33.5095 23.4223 36.8891 30.144C37.7326 31.8214 38.4106 33.529 38.8871 35.1543C37.1652 36.0569 35.6659 37.3269 34.4942 38.861C33.1731 37.3151 31.901 35.3665 30.8116 33.1996ZM50.7661 62.5487C49.3226 62.5487 47.9532 62.1443 46.7601 61.3749V60.3387L49.1513 57.9474C49.8377 57.261 49.8377 56.148 49.1513 55.4616C48.4647 54.7752 47.3521 54.7752 46.6653 55.4616L45.0022 57.1247L43.339 55.4616C42.6526 54.7752 41.54 54.7752 40.8531 55.4616C40.1667 56.148 40.1667 57.261 40.8531 57.9474L43.2443 60.3387V61.3749C42.0511 62.1443 40.6817 62.5487 39.2383 62.5487C35.1405 62.5487 31.8066 59.2148 31.8066 55.1169C31.8066 52.8138 32.8509 50.6778 34.6721 49.2563C35.1423 48.8893 35.3941 48.3087 35.3412 47.7146C35.3129 47.3956 35.2991 47.1186 35.2991 46.8678C35.2991 41.5175 39.6519 37.1646 45.0022 37.1646C50.3525 37.1646 54.7053 41.5175 54.7053 46.8678C54.7053 47.1186 54.6914 47.3956 54.6631 47.7146C54.61 48.3087 54.8621 48.8893 55.3323 49.2563C57.1533 50.6778 58.1979 52.8139 58.1979 55.1169C58.1979 59.2148 54.864 62.5487 50.7661 62.5487ZM61.9017 24.7124C61.6643 27.155 60.6771 30.2484 59.1933 33.1996C58.1037 35.3665 56.8316 37.3153 55.5109 38.8612C54.339 37.3269 52.8397 36.0571 51.1178 35.1543C51.5943 33.529 52.2724 31.821 53.1158 30.144C56.4952 23.4226 60.4736 20.8801 61.3576 21.3234C61.6796 21.4853 62.112 22.5485 61.9017 24.7124Z" fill="#10B3F0"/>
<path d="M9.18716 15.7017C10.1579 15.7017 10.9449 14.9147 10.9449 13.944C10.9449 12.9732 10.1579 12.1862 9.18716 12.1862C8.2164 12.1862 7.42944 12.9732 7.42944 13.944C7.42944 14.9147 8.2164 15.7017 9.18716 15.7017Z" fill="#10B3F0"/>
<path d="M41.1942 51.2478C42.165 51.2478 42.952 50.4609 42.952 49.4901C42.952 48.5193 42.165 47.7324 41.1942 47.7324C40.2235 47.7324 39.4365 48.5193 39.4365 49.4901C39.4365 50.4609 40.2235 51.2478 41.1942 51.2478Z" fill="#10B3F0"/>
<path d="M48.5768 51.2478C49.5476 51.2478 50.3345 50.4609 50.3345 49.4901C50.3345 48.5193 49.5476 47.7324 48.5768 47.7324C47.606 47.7324 46.8191 48.5193 46.8191 49.4901C46.8191 50.4609 47.606 51.2478 48.5768 51.2478Z" fill="#10B3F0"/>
</g>
<defs>
<clipPath id="clip0_158_161">
<rect width="90" height="90" fill="white"/>
</clipPath>
</defs>
</svg>
