<svg width="90" height="100" viewBox="0 0 90 100" fill="none" xmlns="http://www.w3.org/2000/svg">
<path d="M29.3865 38.9548C22.2688 50.0797 28.1106 58.9831 30.0612 61.4449C27.6758 65.4832 25.8377 69.9229 25.1954 74.5878C25.0492 75.6503 25.8676 76.6208 27.0223 76.7553C27.1122 76.7668 27.2009 76.7714 27.2897 76.7714C28.3356 76.7714 29.244 76.0551 29.379 75.0754C31.657 58.5174 51.5241 44.2108 51.724 44.0682C52.6449 43.4128 52.8149 42.1939 52.1039 41.3465C51.3916 40.499 50.0683 40.3404 49.1474 40.9958C48.5688 41.4063 39.3381 48.049 32.4492 57.7688C30.6111 54.8677 28.0732 48.6562 33.0203 40.9233C36.1005 36.1054 40.8976 35.3396 46.4533 34.4519C50.5306 33.8022 55.0491 33.0801 59.1103 30.5562C60.4136 36.2951 62.4104 49.1448 56.4324 56.7086C53.4509 60.4813 48.7162 62.489 42.3596 62.6741C41.1963 62.7075 40.2816 63.6021 40.3191 64.6726C40.3553 65.7236 41.2912 66.5526 42.4259 66.5526H42.4933C50.2245 66.3284 56.0625 63.7814 59.85 58.9842C68.887 47.5339 62.6728 27.4079 62.4042 26.5558C62.1955 25.9004 61.6282 25.391 60.9097 25.2197C60.1874 25.0495 59.4252 25.2369 58.8966 25.7199C55.1553 29.1257 50.5794 29.8571 45.7322 30.6298C39.698 31.5922 33.4576 32.588 29.3865 38.9548V38.9548Z" fill="#10B3F0"/>
<path d="M27.3508 88.099C27.6195 88.2048 27.9006 88.2542 28.1755 88.2542C28.9953 88.2542 29.775 87.8115 30.1174 87.0733C30.5735 86.0879 30.0749 84.9484 29.0028 84.5287C12.3858 78.0136 2.52288 62.5238 4.45848 45.9807C6.67274 27.0597 23.8907 12.9187 44.0415 12.4933L38.8345 16.3522C37.9273 17.0249 37.7848 18.246 38.5146 19.0808C38.9307 19.5569 39.5417 19.8041 40.1578 19.8041C40.6226 19.8041 41.09 19.6638 41.4798 19.3752L51.0654 12.2713C51.5015 11.9482 51.7789 11.4802 51.8389 10.9674C51.8988 10.4546 51.7352 9.94288 51.3853 9.54272L43.6641 0.723283C42.9343 -0.111517 41.6073 -0.242601 40.6988 0.428918C39.7917 1.10159 39.6492 2.32274 40.3802 3.15754L45.1374 8.59179C22.3925 8.5113 2.7528 24.3139 0.266132 45.5645C-1.87065 63.8174 9.01445 80.9101 27.3508 88.099V88.099Z" fill="#10B3F0"/>
<path d="M60.6122 15.3195C77.2229 21.6403 87.4782 37.5544 85.5526 54.0216C83.3358 72.9403 66.1103 87.0709 45.9683 87.5044L51.1741 83.6478C52.0813 82.974 52.2237 81.7551 51.494 80.9192C50.763 80.0832 49.4372 79.9533 48.5287 80.6248L38.9419 87.7287C38.5058 88.0518 38.2272 88.5198 38.1672 89.0315C38.1072 89.5432 38.2709 90.056 38.622 90.4573L46.3444 99.2767C46.7618 99.7528 47.3716 100 47.9864 100C48.4512 100 48.9186 99.8586 49.3097 99.5711C50.2169 98.8973 50.3594 97.6761 49.6283 96.8425L44.8674 91.4048C44.9237 91.4048 44.9799 91.4094 45.0361 91.4094C67.7036 91.4071 87.262 75.6344 89.7449 54.4367C91.8692 36.2689 80.553 18.7082 62.2241 11.7331C61.1495 11.3261 59.9137 11.7952 59.4701 12.7852C59.0252 13.7753 59.5363 14.909 60.6122 15.3195V15.3195Z" fill="#10B3F0"/>
</svg>
