<svg width="70" height="70" viewBox="0 0 70 70" fill="none" xmlns="http://www.w3.org/2000/svg">
<path d="M58.1432 36.3488L54.341 27.6881C54.0258 26.9725 53.5187 26.3657 52.8801 25.9399C52.2414 25.514 51.498 25.287 50.7384 25.2859H43.7435V22.2123C43.7426 21.3974 43.4296 20.6161 42.873 20.0399C42.3165 19.4637 41.5619 19.1396 40.7748 19.1387H16.0359C15.2488 19.1396 14.4942 19.4637 13.9377 20.0399C13.3812 20.6161 13.0681 21.3974 13.0672 22.2123V34.5068C13.066 34.6422 13.0906 34.7765 13.1398 34.9019C13.189 35.0274 13.2617 35.1415 13.3537 35.2377C13.4457 35.3339 13.5552 35.4102 13.6759 35.4623C13.7966 35.5144 13.926 35.5413 14.0568 35.5413C14.1875 35.5413 14.317 35.5144 14.4377 35.4623C14.5584 35.4102 14.6679 35.3339 14.7599 35.2377C14.8519 35.1415 14.9246 35.0274 14.9738 34.9019C15.0229 34.7765 15.0476 34.6422 15.0463 34.5068V22.2123C15.0466 21.9407 15.151 21.6802 15.3365 21.4881C15.522 21.2961 15.7735 21.188 16.0359 21.1877H40.7748C41.0372 21.188 41.2887 21.2961 41.4742 21.4881C41.6597 21.6802 41.7641 21.9407 41.7644 22.2123V38.605C41.764 38.8766 41.6596 39.137 41.4741 39.329C41.2886 39.5211 41.0371 39.6291 40.7748 39.6295H28.9002C28.6394 39.6321 28.3901 39.7412 28.2066 39.933C28.0231 40.1249 27.9201 40.384 27.9201 40.654C27.9201 40.924 28.0231 41.1831 28.2066 41.375C28.3901 41.5668 28.6394 41.6759 28.9002 41.6785H40.7748C41.5619 41.6776 42.3165 41.3535 42.873 40.7773C43.4296 40.2011 43.7426 39.4198 43.7435 38.6049V27.335H50.7384C51.1183 27.3355 51.49 27.449 51.8094 27.6619C52.1288 27.8748 52.3825 28.1783 52.5402 28.5361L52.9125 29.384H48.6914C48.1666 29.3846 47.6635 29.6006 47.2924 29.9848C46.9214 30.369 46.7127 30.8899 46.7121 31.4332V35.5314C46.7126 36.0746 46.9213 36.5955 47.2924 36.9797C47.6634 37.3638 48.1665 37.5799 48.6912 37.5804H56.4654C56.5552 37.8673 56.6033 38.1664 56.6081 38.4679V42.7032C56.6077 42.9749 56.5033 43.2353 56.3177 43.4273C56.1321 43.6194 55.8805 43.7274 55.6181 43.7277H52.5494C52.3213 42.5708 51.7142 41.5311 50.8309 40.7843C49.9475 40.0376 48.8421 39.6297 47.7017 39.6297C46.5613 39.6297 45.4559 40.0376 44.5726 40.7843C43.6892 41.5311 43.0821 42.5708 42.854 43.7277H26.8211C26.5929 42.5708 25.9858 41.5311 25.1025 40.7843C24.2191 40.0376 23.1137 39.6297 21.9733 39.6297C20.8329 39.6297 19.7275 40.0376 18.8442 40.7843C17.9608 41.5311 17.3537 42.5708 17.1256 43.7277H16.0359C15.7736 43.7273 15.5221 43.6192 15.3365 43.4272C15.151 43.2351 15.0467 42.9747 15.0463 42.7031V41.6786C15.3071 41.676 15.5563 41.5669 15.7399 41.375C15.9234 41.1832 16.0263 40.9241 16.0263 40.6541C16.0263 40.3841 15.9234 40.125 15.7399 39.9331C15.5563 39.7413 15.3071 39.6322 15.0463 39.6296H12.0777C11.8169 39.6322 11.5676 39.7413 11.3841 39.9331C11.2006 40.125 11.0977 40.3841 11.0977 40.6541C11.0977 40.9241 11.2006 41.1832 11.3841 41.375C11.5676 41.5669 11.8169 41.676 12.0777 41.6786H13.0672V42.7032C13.0681 43.5181 13.3812 44.2994 13.9377 44.8756C14.4942 45.4518 15.2488 45.7759 16.0359 45.7768H17.1255C17.3536 46.9337 17.9607 47.9734 18.8441 48.7201C19.7275 49.4669 20.8328 49.8747 21.9732 49.8747C23.1136 49.8747 24.219 49.4669 25.1024 48.7201C25.9857 47.9734 26.5928 46.9337 26.821 45.7768H42.8539C43.082 46.9337 43.6891 47.9734 44.5725 48.7201C45.4558 49.4669 46.5612 49.8747 47.7016 49.8747C48.842 49.8747 49.9474 49.4669 50.8308 48.7201C51.7141 47.9734 52.3212 46.9337 52.5494 45.7768H55.6181C56.4052 45.7759 57.1598 45.4518 57.7163 44.8756C58.2729 44.2994 58.5859 43.5181 58.5868 42.7032V38.4679C58.5879 37.7367 58.4366 37.0139 58.1432 36.3488ZM21.9732 47.8259C21.3861 47.8259 20.8121 47.6456 20.3239 47.3079C19.8357 46.9701 19.4552 46.4901 19.2305 45.9285C19.0059 45.3668 18.9471 44.7488 19.0616 44.1526C19.1762 43.5564 19.4589 43.0087 19.8741 42.5788C20.2892 42.149 20.8182 41.8563 21.3941 41.7377C21.9699 41.6191 22.5668 41.6799 23.1093 41.9126C23.6517 42.1452 24.1154 42.5392 24.4416 43.0446C24.7678 43.5501 24.9419 44.1443 24.9419 44.7522C24.941 45.5671 24.628 46.3484 24.0714 46.9246C23.5149 47.5008 22.7603 47.825 21.9732 47.8259ZM47.7016 47.8259C47.1145 47.8259 46.5405 47.6456 46.0523 47.3079C45.5641 46.9701 45.1836 46.4901 44.9589 45.9285C44.7342 45.3668 44.6755 44.7488 44.79 44.1526C44.9045 43.5564 45.1873 43.0087 45.6025 42.5788C46.0176 42.149 46.5466 41.8563 47.1225 41.7377C47.6983 41.6191 48.2952 41.6799 48.8377 41.9126C49.3801 42.1452 49.8438 42.5392 50.17 43.0446C50.4962 43.5501 50.6703 44.1443 50.6703 44.7522C50.6694 45.5671 50.3564 46.3484 49.7999 46.9246C49.2433 47.5008 48.4888 47.8249 47.7017 47.8259H47.7016ZM48.6912 31.4332H53.8116L55.6108 35.5314H48.6912V31.4332Z" fill="#10B3F0"/>
<path d="M22.8696 31.6572H19.9602L19.4052 33H17.9192L20.7122 26.7337H22.1445L24.9464 33H23.4246L22.8696 31.6572ZM22.4131 30.5561L21.4194 28.157L20.4257 30.5561H22.4131ZM30.2626 28.1839V33H28.9377V32.4271C28.7527 32.636 28.5319 32.7971 28.2753 32.9105C28.0187 33.0179 27.7412 33.0716 27.4428 33.0716C26.8102 33.0716 26.3089 32.8896 25.9388 32.5255C25.5688 32.1615 25.3838 31.6214 25.3838 30.9053V28.1839H26.7803V30.6994C26.7803 31.4752 27.1056 31.8631 27.7561 31.8631C28.0903 31.8631 28.3588 31.7557 28.5618 31.5408C28.7647 31.32 28.8661 30.9948 28.8661 30.5651V28.1839H30.2626ZM34.6627 32.7673C34.5254 32.8687 34.3553 32.9463 34.1524 33C33.9555 33.0477 33.7466 33.0716 33.5258 33.0716C32.9529 33.0716 32.5083 32.9254 32.192 32.633C31.8816 32.3405 31.7265 31.9109 31.7265 31.3439V29.3655H30.9835V28.2913H31.7265V27.1186H33.123V28.2913H34.3225V29.3655H33.123V31.326C33.123 31.5289 33.1737 31.6871 33.2752 31.8004C33.3826 31.9079 33.5318 31.9616 33.7227 31.9616C33.9436 31.9616 34.1316 31.9019 34.2867 31.7825L34.6627 32.7673ZM37.5897 33.0716C37.0824 33.0716 36.6259 32.9672 36.2201 32.7583C35.8202 32.5435 35.5069 32.248 35.2801 31.8721C35.0533 31.4961 34.9399 31.0694 34.9399 30.5919C34.9399 30.1145 35.0533 29.6878 35.2801 29.3118C35.5069 28.9358 35.8202 28.6434 36.2201 28.4345C36.6259 28.2197 37.0824 28.1123 37.5897 28.1123C38.097 28.1123 38.5505 28.2197 38.9504 28.4345C39.3502 28.6434 39.6636 28.9358 39.8903 29.3118C40.1171 29.6878 40.2305 30.1145 40.2305 30.5919C40.2305 31.0694 40.1171 31.4961 39.8903 31.8721C39.6636 32.248 39.3502 32.5435 38.9504 32.7583C38.5505 32.9672 38.097 33.0716 37.5897 33.0716ZM37.5897 31.9258C37.9478 31.9258 38.2402 31.8064 38.467 31.5677C38.6997 31.323 38.8161 30.9978 38.8161 30.5919C38.8161 30.1861 38.6997 29.8638 38.467 29.6251C38.2402 29.3804 37.9478 29.2581 37.5897 29.2581C37.2316 29.2581 36.9362 29.3804 36.7035 29.6251C36.4707 29.8638 36.3543 30.1861 36.3543 30.5919C36.3543 30.9978 36.4707 31.323 36.7035 31.5677C36.9362 31.8064 37.2316 31.9258 37.5897 31.9258Z" fill="#10B3F0"/>
<path d="M12.0777 38.6054H17.0254C17.2862 38.6028 17.5354 38.4937 17.7189 38.3018C17.9024 38.1099 18.0054 37.8508 18.0054 37.5808C18.0054 37.3107 17.9024 37.0516 17.7189 36.8597C17.5354 36.6679 17.2862 36.5588 17.0254 36.5562H12.0777C11.8169 36.5588 11.5676 36.6679 11.3841 36.8597C11.2006 37.0516 11.0977 37.3107 11.0977 37.5808C11.0977 37.8508 11.2006 38.1099 11.3841 38.3018C11.5676 38.4937 11.8169 38.6028 12.0777 38.6054Z" fill="#10B3F0"/>
<circle cx="35" cy="35" r="33.5" stroke="#10B3F0" stroke-width="3"/>
<line x1="12.4737" y1="10.3524" x2="59.6477" y2="57.5263" stroke="#10B3F0" stroke-width="3"/>
</svg>
