<svg width="70" height="70" viewBox="0 0 70 70" fill="none" xmlns="http://www.w3.org/2000/svg">
<path d="M36.655 25.8916H27.3124C27.0026 25.8916 26.7056 26.019 26.4866 26.2458C26.2676 26.4726 26.1445 26.7802 26.1445 27.101C26.1445 27.4217 26.2676 27.7294 26.4866 27.9562C26.7056 28.183 27.0026 28.3104 27.3124 28.3104H36.655C36.9648 28.3104 37.2618 28.183 37.4808 27.9562C37.6998 27.7294 37.8229 27.4217 37.8229 27.101C37.8229 26.7802 37.6998 26.4726 37.4808 26.2458C37.2618 26.019 36.9648 25.8916 36.655 25.8916Z" fill="#10B3F0"/>
<path d="M36.655 32.3604H27.3124C27.0026 32.3604 26.7056 32.4878 26.4866 32.7146C26.2676 32.9414 26.1445 33.249 26.1445 33.5697C26.1445 33.8905 26.2676 34.1981 26.4866 34.4249C26.7056 34.6517 27.0026 34.7791 27.3124 34.7791H36.655C36.9648 34.7791 37.2618 34.6517 37.4808 34.4249C37.6998 34.1981 37.8229 33.8905 37.8229 33.5697C37.8229 33.249 37.6998 32.9414 37.4808 32.7146C37.2618 32.4878 36.9648 32.3604 36.655 32.3604Z" fill="#10B3F0"/>
<path d="M36.655 38.9746H27.3124C27.0026 38.9746 26.7056 39.102 26.4866 39.3288C26.2676 39.5557 26.1445 39.8633 26.1445 40.1841C26.1445 40.5048 26.2676 40.8124 26.4866 41.0393C26.7056 41.2661 27.0026 41.3935 27.3124 41.3935H36.655C36.9648 41.3935 37.2618 41.2661 37.4808 41.0393C37.6998 40.8124 37.8229 40.5048 37.8229 40.1841C37.8229 39.8633 37.6998 39.5557 37.4808 39.3288C37.2618 39.102 36.9648 38.9746 36.655 38.9746Z" fill="#10B3F0"/>
<path d="M47.5745 16.7627H24.5215C23.9224 16.7643 23.3294 16.8882 22.7767 17.1274C22.2239 17.3666 21.7222 17.7164 21.3002 18.1567C20.8782 18.597 20.5442 19.1191 20.3174 19.6933C20.0907 20.2674 19.9755 20.8822 19.9786 21.5025V50.993C19.9778 51.2957 20.0549 51.593 20.2018 51.8546C20.3488 52.1162 20.5603 52.3326 20.8148 52.4816C21.0692 52.6305 21.3573 52.7066 21.6496 52.7022C21.9418 52.6977 22.2277 52.6128 22.4777 52.4561L26.7754 49.7839C26.8402 49.7421 26.915 49.72 26.9914 49.72C27.0678 49.72 27.1426 49.7421 27.2075 49.7839L31.9839 52.7463C32.2351 52.912 32.5268 53.0001 32.8248 53.0002C33.1245 52.9986 33.4186 52.9152 33.6773 52.7584L38.4771 49.7839C38.5419 49.7421 38.6167 49.72 38.6931 49.72C38.7695 49.72 38.8443 49.7421 38.9092 49.7839L43.1834 52.4561C43.4343 52.6104 43.7208 52.6919 44.0126 52.6919C44.3044 52.6919 44.5909 52.6104 44.8418 52.4561C45.093 52.3073 45.3019 52.0926 45.4475 51.8337C45.593 51.5747 45.6701 51.2806 45.6709 50.9809V30.5951H49.3379C50.0741 30.5919 50.7793 30.2877 51.2999 29.7487C51.8205 29.2097 52.1143 28.4796 52.1174 27.7174V21.5025C52.1204 20.8822 52.0053 20.2674 51.7785 19.6933C51.5517 19.1191 51.2178 18.597 50.7958 18.1567C50.3738 17.7164 49.872 17.3666 49.3193 17.1274C48.7665 16.8882 48.1736 16.7643 47.5745 16.7627ZM43.3353 49.7235L40.112 47.7163C39.6826 47.4524 39.1925 47.3131 38.6931 47.3131C38.1937 47.3131 37.7036 47.4524 37.2742 47.7163L32.8364 50.4731L28.4103 47.7042C27.9758 47.4351 27.4786 47.294 26.9723 47.2962C26.466 47.2983 25.9698 47.4436 25.5375 47.7163L22.3142 49.7355V21.5025C22.3096 21.1993 22.3633 20.8983 22.4721 20.6168C22.5809 20.3353 22.7428 20.0791 22.9482 19.8631C23.1536 19.647 23.3985 19.4754 23.6686 19.3583C23.9387 19.2412 24.2286 19.1809 24.5215 19.1809H43.8141C43.5057 19.7893 43.3415 20.4648 43.3353 21.1518V49.6872V49.7235ZM49.7817 27.7174C49.7817 27.8392 49.7349 27.9561 49.6517 28.0423C49.5685 28.1284 49.4556 28.1768 49.3379 28.1768H45.6709V21.1881C45.6663 20.9262 45.7121 20.666 45.8056 20.4227C45.8992 20.1794 46.0387 19.9578 46.2159 19.771C46.3932 19.5841 46.6046 19.4357 46.8378 19.3344C47.0711 19.2331 47.3215 19.1809 47.5745 19.1809C48.1599 19.1809 48.7213 19.4217 49.1352 19.8503C49.5492 20.2788 49.7817 20.8601 49.7817 21.4662V27.7174Z" fill="#10B3F0"/>
<circle cx="35" cy="35" r="33.5" stroke="#10B3F0" stroke-width="3"/>
<line x1="12.4735" y1="10.3524" x2="59.6474" y2="57.5263" stroke="#10B3F0" stroke-width="3"/>
</svg>
