<svg width="57" height="75" viewBox="0 0 57 75" fill="none" xmlns="http://www.w3.org/2000/svg">
<path d="M23.4985 48.89C23.4985 45.3078 24.2908 42.3456 25.8752 40.0033C27.5285 37.6611 29.9052 35.0778 33.0052 32.2533C35.2785 30.1867 36.9319 28.4644 37.9652 27.0867C39.0674 25.64 39.6185 24.0211 39.6185 22.23C39.6185 19.6811 38.5852 17.6833 36.5185 16.2367C34.5208 14.7211 31.8341 13.9633 28.4585 13.9633C25.2208 13.9633 22.3274 14.6522 19.7785 16.03C17.2985 17.3389 15.1974 19.1989 13.4752 21.61L0.971864 14.2733C3.8652 9.86445 7.75742 6.45444 12.6485 4.04333C17.6085 1.63222 23.4641 0.426669 30.2152 0.426669C38.1374 0.426669 44.4752 2.11445 49.2285 5.49C54.0508 8.86556 56.4619 13.55 56.4619 19.5433C56.4619 22.3678 55.9796 24.8478 55.0152 26.9833C54.1196 29.1189 52.983 30.9444 51.6052 32.46C50.2963 33.9067 48.5741 35.5944 46.4385 37.5233C43.8896 39.7967 42.0296 41.7256 40.8585 43.31C39.6874 44.8256 39.1019 46.6856 39.1019 48.89H23.4985ZM31.3519 74.8267C28.5274 74.8267 26.1508 73.9311 24.2219 72.14C22.3619 70.28 21.4319 68.0411 21.4319 65.4233C21.4319 62.8056 22.3619 60.6356 24.2219 58.9133C26.0819 57.1222 28.4585 56.2267 31.3519 56.2267C34.2452 56.2267 36.6219 57.1222 38.4819 58.9133C40.3419 60.6356 41.2719 62.8056 41.2719 65.4233C41.2719 68.0411 40.3074 70.28 38.3785 72.14C36.5185 73.9311 34.1763 74.8267 31.3519 74.8267Z" fill="#DEF1F9"/>
</svg>
