<svg version="1.1" id="Layer_1" xmlns="http://www.w3.org/2000/svg" xmlns:xlink="http://www.w3.org/1999/xlink" x="0" y="0" viewBox="0 0 798 199.52" xml:space="preserve"><style>.st3{fill:#382757}</style><linearGradient id="SVGID_1_" gradientUnits="userSpaceOnUse" x1="76.843" y1="136.115" x2="44.416" y2="97.47"><stop offset="0" stop-color="#ce5dcb"/><stop offset=".209" stop-color="#c558cc"/><stop offset=".552" stop-color="#ac4acf"/><stop offset=".985" stop-color="#8534d4"/><stop offset="1" stop-color="#8333d4"/></linearGradient><path d="M13.53 134.17c18.04 18.05 47.3 18.05 65.35 0l1.73-1.73c9.02-9.02-9.02-56.32 0-65.35l-67.08 67.08z" fill="url(#SVGID_1_)"/><linearGradient id="SVGID_2_" gradientUnits="userSpaceOnUse" x1="78.019" y1="92.127" x2="147.697" y2="92.127"><stop offset=".024" stop-color="#ff5667"/><stop offset=".659" stop-color="#fc8b82"/><stop offset="1" stop-color="#fba28e"/></linearGradient><path d="M82.35 65.36l-1.73 1.73c-9.02 9.02 9.02 56.32 0 65.34l67.07-67.07c-9.02-9.02-20.85-13.53-32.67-13.53-11.82-.01-23.65 4.5-32.67 13.53" fill="url(#SVGID_2_)"/><defs><path id="SVGID_3_" d="M13.53 68.83c-18.05 18.04-18.05 47.3 0 65.34l68.83-68.83c18.04-18.05 18.04-47.3 0-65.34L13.53 68.83z"/></defs><linearGradient id="SVGID_4_" gradientUnits="userSpaceOnUse" x1="0" y1="67.086" x2="95.897" y2="67.086"><stop offset="0" stop-color="#00b874"/><stop offset=".513" stop-color="#29d3a2"/><stop offset=".682" stop-color="#53dfb6"/><stop offset="1" stop-color="#9ff4d9"/></linearGradient><use xlink:href="#SVGID_3_" overflow="visible" fill="url(#SVGID_4_)"/><clipPath id="SVGID_5_"><use xlink:href="#SVGID_3_" overflow="visible"/></clipPath><linearGradient id="SVGID_6_" gradientUnits="userSpaceOnUse" x1="65.346" y1="132.432" x2="161.243" y2="132.432"><stop offset="0" stop-color="#fcd77e"/><stop offset=".524" stop-color="#fea500"/><stop offset="1" stop-color="#ff5b00"/></linearGradient><path d="M78.88 134.17c-18.04 18.05-18.04 47.3 0 65.35l68.83-68.83c18.05-18.04 18.05-47.3 0-65.34l-68.83 68.82z" fill="url(#SVGID_6_)"/><g><path class="st3" d="M415.45 100.12a51.59 51.59 0 00-6.16-13.49c-4.62-7.17-11.06-13.15-18.62-17.29-11.93-6.51-26.17-8.04-39.28-4.22-13.23 3.86-24.16 12.66-30.78 24.78-6.58 12.06-8.1 25.96-4.27 39.16l.04.13c.88 2.94 2.29 6.7 2.32 6.76 4.39 10.28 11.74 18.12 22.47 23.99 7.58 4.15 16.11 6.34 24.66 6.34 4.91 0 9.83-.71 14.6-2.12 10.09-2.95 18.89-8.77 25.53-16.94l.42-.52a51.83 51.83 0 004.56-6.81c2.37-4.23.85-9.6-3.38-11.97a8.829 8.829 0 00-4.29-1.12c-3.19 0-6.13 1.72-7.68 4.5a33.679 33.679 0 01-8.54 10.02c-.3.24-.59.5-.74.68-3.22 2.4-6.86 4.2-10.8 5.36-8.62 2.53-18.02 1.52-25.94-2.8-5.23-2.85-9.6-7.08-12.7-12.26l72.66-21.32c4.61-1.36 7.28-6.23 5.92-10.86zm-49.47-19.61c5.62 0 11.25 1.45 16.29 4.19a34.26 34.26 0 0112.3 11.41c.17.27.35.55.52.83l-63.26 18.56c-.16-5.97 1.28-11.9 4.18-17.22 4.36-7.99 11.57-13.8 20.31-16.36 3.17-.94 6.43-1.41 9.66-1.41zm39.41 66zM508.71 149.58h-48.07l53.75-78.97a4.854 4.854 0 00.28-5.01 4.84 4.84 0 00-4.3-2.59h-68.34c-4.54 0-8.23 3.69-8.23 8.23 0 4.54 3.69 8.23 8.23 8.23h45.8l-53.74 78.97a4.856 4.856 0 00-.28 5.01 4.85 4.85 0 004.3 2.58h70.59c4.54 0 8.23-3.69 8.23-8.23 0-4.52-3.69-8.22-8.22-8.22zM615.2 149.58h-48.06l53.75-78.97a4.854 4.854 0 00-4.02-7.59h-68.34c-4.54 0-8.23 3.69-8.23 8.23 0 4.54 3.69 8.23 8.23 8.23h45.8l-53.74 78.97a4.877 4.877 0 00-.28 5.01 4.861 4.861 0 004.3 2.58h70.59c4.54 0 8.23-3.69 8.23-8.23 0-4.53-3.69-8.23-8.23-8.23zM662.66 18.47c-4.54 0-8.23 3.69-8.23 8.23v131.41c0 4.53 3.69 8.23 8.23 8.23 4.54 0 8.23-3.7 8.23-8.23V26.7c0-4.54-3.69-8.23-8.23-8.23zM797.65 100.12c-1.38-4.76-3.46-9.3-6.16-13.49-4.63-7.17-11.06-13.15-18.62-17.29-11.94-6.51-26.17-8.04-39.28-4.22-13.23 3.86-24.17 12.66-30.78 24.78-6.59 12.06-8.1 25.96-4.28 39.16l.04.14c.88 2.93 2.29 6.69 2.32 6.76 4.39 10.28 11.74 18.12 22.47 23.99 7.58 4.15 16.11 6.34 24.66 6.34 4.91 0 9.82-.71 14.6-2.12 10.09-2.95 18.89-8.77 25.53-16.93l.43-.55c1.7-2.15 3.23-4.44 4.55-6.8 2.37-4.23.85-9.6-3.38-11.97a8.829 8.829 0 00-4.29-1.12 8.8 8.8 0 00-7.68 4.5 33.7 33.7 0 01-8.54 10.02c-.31.24-.59.5-.75.68-3.22 2.4-6.86 4.2-10.8 5.36-8.61 2.53-18.01 1.52-25.94-2.8-5.23-2.85-9.6-7.08-12.71-12.26l72.66-21.32c4.64-1.36 7.3-6.23 5.95-10.86zm-49.48-19.61c5.62 0 11.25 1.45 16.29 4.19a34.26 34.26 0 0112.3 11.41c.17.27.35.55.52.83l-63.26 18.56c-.16-5.98 1.28-11.91 4.18-17.22 4.36-7.99 11.57-13.8 20.31-16.36 3.18-.94 6.43-1.41 9.66-1.41zM288.77 120.28c-2.44-3.57-5.96-6.55-10.47-8.84-7.36-3.75-16.92-5.47-26.07-6.9l-1.45-.22c-6.43-1-13.08-2.04-17.35-4.2-3.23-1.64-4.38-3.48-4.38-7.07 0-6.95 7.56-12.19 17.6-12.19 11.97 0 18.66 3.5 26.15 8.07a8.85 8.85 0 004.61 1.3c3.12 0 5.95-1.58 7.57-4.24a8.802 8.802 0 001.05-6.7 8.816 8.816 0 00-4-5.48c-4.15-2.53-8.68-5.18-14.42-7.23-6.45-2.31-13.31-3.43-20.97-3.43-9.24 0-17.88 2.8-24.33 7.91-7.09 5.6-10.99 13.42-10.99 22.01 0 10.3 4.88 18.22 14.11 22.89 6.78 3.43 14.84 4.68 22.63 5.89l1.43.22c19.98 3.13 25.75 5.95 25.75 12.56 0 8.19-8.2 13.55-20.89 13.66h-.46c-13.61 0-21.25-5.23-25.35-8.04-.68-.46-1.26-.87-1.84-1.23a8.832 8.832 0 00-4.68-1.34c-3.08 0-5.9 1.56-7.53 4.17-2.59 4.15-1.32 9.63 2.83 12.21.23.14.58.38.97.65l.24.16c4.87 3.33 16.26 11.14 35.37 11.14h.61c11.01-.1 20.48-3.06 27.37-8.58 7.15-5.72 11.09-13.82 11.09-22.81 0-5.45-1.42-10.27-4.2-14.34z"/></g></svg>