<svg width="90" height="90" viewBox="0 0 90 90" fill="none" xmlns="http://www.w3.org/2000/svg">
<g clip-path="url(#clip0_158_173)">
<path d="M22.8976 72.5865C19.5666 75.8736 17.3515 80.1234 16.5646 84.7365C16.4549 85.3801 16.4873 86.0398 16.6597 86.6695C16.832 87.2992 17.14 87.8835 17.5621 88.3815C17.9886 88.8885 18.5208 89.296 19.1215 89.5756C19.7221 89.8552 20.3766 90.0001 21.0391 90H68.9611C69.6228 90.0007 70.2766 89.8568 70.8769 89.5786C71.4772 89.3003 72.0095 88.8943 72.4366 88.389C72.8579 87.8902 73.1657 87.3056 73.3385 86.676C73.5112 86.0463 73.5449 85.3865 73.4371 84.7425C72.5688 79.7227 70.0269 75.1446 66.2253 71.7534C62.4237 68.3622 57.5861 66.3577 52.5001 66.066V62.9895C55.8364 61.5951 58.7202 59.3022 60.8306 56.3661C62.9411 53.4299 64.1953 49.9657 64.4536 46.359C66.1566 46.02 67.6895 45.1016 68.7919 43.76C69.8942 42.4184 70.4978 40.7364 70.5001 39V33C70.495 28.6397 69.371 24.3536 67.2355 20.552C65.1001 16.7504 62.0246 13.5605 58.3036 11.2875C57.7832 8.13478 56.1601 5.26931 53.7236 3.20199C51.287 1.13466 48.1955 -0.000167847 45.0001 -0.000167847C41.8047 -0.000167847 38.7132 1.13466 36.2767 3.20199C33.8401 5.26931 32.217 8.13478 31.6966 11.2875C27.9756 13.5605 24.9002 16.7504 22.7647 20.552C20.6292 24.3536 19.5052 28.6397 19.5001 33V39C19.5024 40.7364 20.106 42.4184 21.2083 43.76C22.3107 45.1016 23.8436 46.02 25.5466 46.359C25.805 49.9657 27.0591 53.4299 29.1696 56.3661C31.28 59.3022 34.1638 61.5951 37.5001 62.9895V66.072C32.0041 66.4024 26.815 68.7174 22.8976 72.5865ZM70.4776 85.2435C70.515 85.4571 70.5045 85.6764 70.447 85.8854C70.3894 86.0945 70.2861 86.2882 70.1446 86.4525C69.999 86.6244 69.8177 86.7624 69.6133 86.857C69.4089 86.9515 69.1863 87.0004 68.9611 87H21.0391C20.8136 87.0001 20.5907 86.951 20.3861 86.8562C20.1814 86.7614 19.9999 86.6231 19.8541 86.451C19.7141 86.2876 19.6116 86.0954 19.5541 85.8881C19.4966 85.6807 19.4853 85.4632 19.5211 85.251C20.2036 81.2543 22.1227 77.5725 25.0081 74.724C28.4059 71.3702 32.9042 69.3616 37.6696 69.0705C38.0312 70.7463 38.956 72.2476 40.29 73.3244C41.6239 74.4012 43.2865 74.9885 45.0009 74.9885C46.7152 74.9885 48.3778 74.4012 49.7117 73.3244C51.0457 72.2476 51.9705 70.7463 52.3321 69.0705C56.7373 69.325 60.9271 71.0612 64.2212 73.9972C67.5152 76.9332 69.72 80.8965 70.4776 85.2435ZM45.0001 3C47.0667 2.99694 49.088 3.60472 50.8102 4.74697C52.5324 5.88923 53.8786 7.515 54.6796 9.42001C48.4805 6.85999 41.5197 6.85999 35.3206 9.42001C36.1216 7.515 37.4678 5.88923 39.19 4.74697C40.9122 3.60472 42.9335 2.99694 45.0001 3ZM45.0001 10.5C50.4813 10.5085 55.7713 12.5159 59.8784 16.1458C63.9854 19.7757 66.6276 24.7789 67.3096 30.2175C66.8866 30.0793 66.4451 30.0059 66.0001 30C65.4037 29.9998 64.8132 30.1184 64.263 30.3489C63.7129 30.5794 63.2143 30.9172 62.7961 31.3425C61.4492 28.3888 59.3165 25.862 56.631 24.038C53.9454 22.2141 50.8104 21.1631 47.5681 21C46.5926 20.9624 45.6316 21.2453 44.8321 21.8055L28.3321 33.252C28.0593 32.3141 27.4896 31.49 26.7084 30.9036C25.9272 30.3172 24.9769 30.0001 24.0001 30C23.5551 30.0059 23.1136 30.0793 22.6906 30.2175C23.3726 24.7789 26.0148 19.7757 30.1218 16.1458C34.2289 12.5159 39.5189 10.5085 45.0001 10.5ZM28.5001 45C28.5001 44.6022 28.3421 44.2207 28.0608 43.9394C27.7795 43.658 27.3979 43.5 27.0001 43.5C25.8066 43.5 24.662 43.0259 23.8181 42.182C22.9742 41.3381 22.5001 40.1935 22.5001 39V34.5C22.5001 34.1022 22.6581 33.7207 22.9394 33.4393C23.2207 33.158 23.6023 33 24.0001 33C24.3979 33 24.7795 33.158 25.0608 33.4393C25.3421 33.7207 25.5001 34.1022 25.5001 34.5V36C25.5003 36.2738 25.5754 36.5423 25.7173 36.7764C25.8591 37.0106 26.0624 37.2014 26.305 37.3283C26.5476 37.4551 26.8203 37.5132 27.0936 37.4961C27.3668 37.4791 27.6302 37.3876 27.8551 37.2315L46.5421 24.2745C46.7941 24.0866 47.1024 23.9898 47.4166 24C58.7476 24.576 61.4281 35.85 61.5346 36.324C61.6136 36.6858 61.8236 37.0056 62.1242 37.2219C62.4249 37.4381 62.7949 37.5355 63.163 37.4953C63.5312 37.4551 63.8714 37.2801 64.1183 37.004C64.3651 36.728 64.5011 36.3703 64.5001 36V34.5C64.5001 34.1022 64.6581 33.7207 64.9394 33.4393C65.2208 33.158 65.6023 33 66.0001 33C66.3979 33 66.7795 33.158 67.0608 33.4393C67.3421 33.7207 67.5001 34.1022 67.5001 34.5V39C67.5001 40.1935 67.026 41.3381 66.1821 42.182C65.3382 43.0259 64.1936 43.5 63.0001 43.5C62.6023 43.5 62.2208 43.658 61.9394 43.9394C61.6581 44.2207 61.5001 44.6022 61.5001 45C61.5001 49.3761 59.7617 53.5729 56.6674 56.6673C53.573 59.7616 49.3762 61.5 45.0001 61.5C40.624 61.5 36.4272 59.7616 33.3328 56.6673C30.2385 53.5729 28.5001 49.3761 28.5001 45ZM45.0001 64.5C46.5163 64.4941 48.0265 64.3109 49.5001 63.954V67.5C49.5001 68.6935 49.026 69.8381 48.1821 70.682C47.3382 71.5259 46.1936 72 45.0001 72C43.8066 72 42.662 71.5259 41.8181 70.682C40.9742 69.8381 40.5001 68.6935 40.5001 67.5V63.954C41.9737 64.3109 43.4839 64.4941 45.0001 64.5Z" fill="#10B3F0"/>
<path d="M52.3502 51.6705C52.525 51.3191 52.5541 50.9129 52.4311 50.5401C52.3081 50.1674 52.0429 49.8583 51.6932 49.68C51.3418 49.4975 50.9326 49.4613 50.5546 49.5793C50.1767 49.6974 49.8607 49.96 49.6757 50.31C49.1626 51.059 48.4585 51.657 47.6363 52.0421C46.8142 52.4272 45.904 52.5853 45.0002 52.5C44.0982 52.5827 43.1905 52.4237 42.3704 52.0393C41.5502 51.6549 40.8472 51.0591 40.3337 50.313C40.2445 50.1373 40.1217 49.9809 39.9721 49.8527C39.8225 49.7244 39.6491 49.6269 39.4618 49.5657C39.2746 49.5045 39.0771 49.4808 38.8806 49.4959C38.6842 49.511 38.4926 49.5646 38.3169 49.6538C38.1412 49.7429 37.9848 49.8658 37.8566 50.0154C37.7283 50.165 37.6308 50.3383 37.5696 50.5256C37.5084 50.7129 37.4847 50.9104 37.4998 51.1068C37.5149 51.3033 37.5685 51.4948 37.6577 51.6705C38.4136 52.92 39.498 53.9379 40.7928 54.6131C42.0876 55.2884 43.543 55.5952 45.0002 55.5C46.4586 55.5966 47.9155 55.2905 49.2118 54.6152C50.508 53.9398 51.5937 52.9211 52.3502 51.6705Z" fill="#10B3F0"/>
</g>
<defs>
<clipPath id="clip0_158_173">
<rect width="90" height="90" fill="white"/>
</clipPath>
</defs>
</svg>
