<svg width="270" height="191" viewBox="0 0 270 191" fill="none" xmlns="http://www.w3.org/2000/svg">
<circle cx="79.1386" cy="79.7381" r="57.0531" stroke="#10B3F0" stroke-width="7"/>
<line x1="80.7382" y1="4.37114e-08" x2="80.7382" y2="15.5879" stroke="#10B3F0" stroke-width="2"/>
<line x1="80.7382" y1="143.888" x2="80.7382" y2="159.476" stroke="#10B3F0" stroke-width="2"/>
<line x1="159.476" y1="80.7383" x2="143.889" y2="80.7383" stroke="#10B3F0" stroke-width="2"/>
<line x1="15.5879" y1="80.7383" x2="-2.86977e-05" y2="80.7383" stroke="#10B3F0" stroke-width="2"/>
<line x1="136.829" y1="24.0621" x2="125.806" y2="35.0844" stroke="#10B3F0" stroke-width="2"/>
<line x1="35.0842" y1="125.806" x2="24.0619" y2="136.829" stroke="#10B3F0" stroke-width="2"/>
<line y1="-1" x2="15.5879" y2="-1" transform="matrix(-0.707103 -0.707111 0.707103 -0.70711 136.121 136.122)" stroke="#10B3F0" stroke-width="2"/>
<line y1="-1" x2="15.5879" y2="-1" transform="matrix(-0.707102 -0.707112 0.707102 -0.707111 34.3772 34.3774)" stroke="#10B3F0" stroke-width="2"/>
<mask id="path-10-inside-1_158_108" fill="white">
<path fill-rule="evenodd" clip-rule="evenodd" d="M229.023 188.295C203.746 181.017 185.256 157.717 185.256 130.099C185.256 102.481 203.746 79.181 229.022 71.903C223.692 70.3682 218.06 69.5459 212.235 69.5459C178.793 69.5459 151.682 96.6564 151.682 130.099C151.682 163.542 178.793 190.652 212.235 190.652C218.06 190.652 223.692 189.83 229.023 188.295Z"/>
</mask>
<path d="M229.023 188.295L230.959 195.022L254.321 188.295L230.959 181.568L229.023 188.295ZM229.022 71.903L230.959 78.6297L254.321 71.903L230.959 65.1763L229.022 71.903ZM230.959 181.568C208.601 175.13 192.256 154.514 192.256 130.099H178.256C178.256 160.92 198.891 186.903 227.086 195.022L230.959 181.568ZM192.256 130.099C192.256 105.684 208.601 85.0676 230.959 78.6297L227.085 65.1763C198.891 73.2945 178.256 99.2778 178.256 130.099H192.256ZM212.235 76.5459C217.398 76.5459 222.378 77.2744 227.086 78.6297L230.959 65.1763C225.006 63.462 218.722 62.5459 212.235 62.5459V76.5459ZM158.682 130.099C158.682 100.522 182.659 76.5459 212.235 76.5459V62.5459C174.927 62.5459 144.682 92.7904 144.682 130.099H158.682ZM212.235 183.652C182.659 183.652 158.682 159.676 158.682 130.099H144.682C144.682 167.407 174.927 197.652 212.235 197.652V183.652ZM227.086 181.568C222.378 182.924 217.398 183.652 212.235 183.652V197.652C218.722 197.652 225.006 196.736 230.959 195.022L227.086 181.568Z" fill="#10B3F0" mask="url(#path-10-inside-1_158_108)"/>
<path d="M207.035 106.717L213.884 102.031L214.039 101.925L214.144 101.771L218.83 94.922L223.516 101.771L223.622 101.925L223.777 102.031L230.625 106.717L223.777 111.403L223.622 111.509L223.516 111.664L218.83 118.512L214.144 111.664L214.039 111.509L213.884 111.403L207.035 106.717Z" stroke="#10B3F0" stroke-width="2"/>
<path d="M214.246 151.257L218.909 149.617L219.086 149.555L219.228 149.433L222.98 146.214L224.621 150.878L224.683 151.054L224.805 151.197L228.023 154.949L223.36 156.589L223.183 156.651L223.041 156.773L219.289 159.992L217.648 155.329L217.586 155.152L217.464 155.009L214.246 151.257Z" stroke="#10B3F0" stroke-width="2"/>
<path d="M250.984 115.09L258.88 118.876L259.049 118.958L259.236 118.972L267.966 119.641L264.18 127.536L264.099 127.705L264.085 127.892L263.416 136.623L255.521 132.837L255.352 132.755L255.165 132.741L246.434 132.072L250.22 124.177L250.301 124.008L250.316 123.821L250.984 115.09Z" stroke="#10B3F0" stroke-width="2"/>
</svg>
