<svg width="44" height="44" viewBox="0 0 44 44" fill="none" xmlns="http://www.w3.org/2000/svg">
<circle cx="22" cy="22" r="21" stroke="#10B3F0" stroke-width="2"/>
<path d="M18.9554 12.5715H25.0447L24.0298 25.5549H19.9703L18.9554 12.5715ZM22 32.6858C21.1052 32.6858 20.3522 32.4396 19.7411 31.9472C19.1518 31.4358 18.8572 30.8202 18.8572 30.1005C18.8572 29.3808 19.1518 28.7842 19.7411 28.3107C20.3304 27.8182 21.0834 27.572 22 27.572C22.9167 27.572 23.6697 27.8182 24.259 28.3107C24.8482 28.7842 25.1429 29.3808 25.1429 30.1005C25.1429 30.8202 24.8373 31.4358 24.2262 31.9472C23.6369 32.4396 22.8949 32.6858 22 32.6858Z" fill="#10B3F0"/>
</svg>
