<svg width="27" height="28" viewBox="0 0 27 28" fill="none" xmlns="http://www.w3.org/2000/svg">
<path d="M26.0831 5.8086C26.2768 5.45024 26.149 5.00282 25.7953 4.8008L20.4003 1.71935C20.2249 1.61918 20.0165 1.59398 19.8223 1.64944C19.6281 1.70491 19.4645 1.83637 19.3685 2.01405L12.1413 15.3885L7.40771 8.08855C7.29768 7.91887 7.12378 7.80081 6.92547 7.76116C6.72716 7.72151 6.52123 7.76363 6.35442 7.87797L1.2193 11.3976C0.883796 11.6275 0.792735 12.083 1.01403 12.4243L9.24289 25.1145C9.98065 26.2522 11.2492 26.9219 12.5957 26.8659C13.942 26.8099 15.1521 26.0374 15.7971 24.8439L26.0831 5.8086Z" fill="#00CB35" stroke="#00CB35" stroke-width="1.5" stroke-linejoin="round"/>
</svg>
