<svg width="238" height="213" viewBox="0 0 238 213" fill="none" xmlns="http://www.w3.org/2000/svg">
<path d="M135.483 170.694L166.478 4.28274L233.088 20.6469L183.444 182.476L135.483 170.694Z" fill="white" stroke="#10B3F0" stroke-width="7"/>
<mask id="path-2-inside-1_158_48" fill="white">
<rect x="136.021" y="167.221" width="50" height="31" rx="2" transform="rotate(13.8025 136.021 167.221)"/>
</mask>
<rect x="136.021" y="167.221" width="50" height="31" rx="2" transform="rotate(13.8025 136.021 167.221)" fill="white" stroke="#10B3F0" stroke-width="14" mask="url(#path-2-inside-1_158_48)"/>
<line x1="135.253" y1="187.113" x2="177.011" y2="197.371" stroke="#10B3F0" stroke-width="3"/>
<circle r="11.9704" transform="matrix(0.971124 0.238576 -0.238575 0.971124 187.192 66.2521)" stroke="#10B3F0" stroke-width="3"/>
<line x1="192.524" y1="49.2967" x2="191.697" y2="52.6642" stroke="#10B3F0" stroke-width="2"/>
<line x1="184.888" y1="80.3812" x2="184.061" y2="83.7486" stroke="#10B3F0" stroke-width="2"/>
<line y1="-1" x2="3.46762" y2="-1" transform="matrix(-0.9711 -0.238674 0.238477 -0.971148 204.547 70.5161)" stroke="#10B3F0" stroke-width="2"/>
<line x1="173.224" y1="63.8505" x2="169.857" y2="63.0232" stroke="#10B3F0" stroke-width="2"/>
<line y1="-1" x2="3.46762" y2="-1" transform="matrix(-0.855355 0.518043 -0.517937 -0.855419 202.494 57.0957)" stroke="#10B3F0" stroke-width="2"/>
<line y1="-1" x2="3.46762" y2="-1" transform="matrix(-0.855364 0.518027 -0.517953 -0.855409 175.115 73.6758)" stroke="#10B3F0" stroke-width="2"/>
<line x1="195.654" y1="81.975" x2="193.858" y2="79.0089" stroke="#10B3F0" stroke-width="2"/>
<line x1="179.074" y1="54.5951" x2="177.278" y2="51.629" stroke="#10B3F0" stroke-width="2"/>
<path d="M74.6979 44C45.8979 57.6 46.0313 80.3333 49.6979 90H128.198L120.698 81.1616C120.698 81.1616 115.698 66.3384 95.198 64.5C74.6979 62.6616 74.6979 44 74.6979 44Z" stroke="#10B3F0" stroke-width="7"/>
<mask id="path-14-inside-2_158_48" fill="white">
<rect x="14" y="83" width="136" height="37" rx="4"/>
</mask>
<rect x="14" y="83" width="136" height="37" rx="4" fill="white" stroke="#10B3F0" stroke-width="14" mask="url(#path-14-inside-2_158_48)"/>
<path d="M4.51579 121.57C4.17773 118.324 6.72322 115.5 9.9862 115.5H154.014C157.277 115.5 159.822 118.324 159.484 121.57L151.359 199.57C151.067 202.372 148.706 204.5 145.889 204.5H18.1112C15.2942 204.5 12.9326 202.372 12.6408 199.57L4.51579 121.57Z" fill="white" stroke="#10B3F0" stroke-width="7"/>
<path d="M63.3736 142.706V142H62.6676C59.4379 142 56.8091 144.629 56.8091 147.859V148.565H57.5152C60.7448 148.565 63.3736 145.936 63.3736 142.706ZM114.838 153.959C113.816 152.381 112.389 151.284 110.587 150.653C109.325 150.203 107.297 149.977 104.488 149.977H100.342L100.627 151.81H103.722C106.411 151.81 108.348 151.991 109.505 152.351C111.067 152.832 112.284 153.703 113.155 154.98C114.027 156.257 114.462 157.805 114.462 159.607C114.462 161.335 114.057 162.777 113.261 163.979C112.464 165.181 111.353 165.992 109.941 166.458C108.934 166.774 107.147 166.939 104.563 166.939H102.054L102.325 168.712H107.507C108.814 168.712 110.106 168.486 111.323 168.005C111.548 167.915 111.788 167.81 111.999 167.69C113.291 167.014 114.342 165.962 115.153 164.535C115.964 163.108 116.37 161.455 116.37 159.577C116.37 157.399 115.874 155.521 114.838 153.959ZM96.6766 150.113L89.5113 165.572L82.361 150.113H81.67L78.7858 169.162H80.6635L82.5563 155.431L89.346 169.162H89.6915L96.4663 155.431L98.3741 169.162H100.252L97.3676 150.113H96.6766ZM70.7943 152.411C72.0711 151.69 73.4531 151.33 74.9403 151.33C76.3072 151.33 77.554 151.6 78.6957 152.156C78.7708 152.201 78.8459 152.231 78.921 152.276L79.2064 150.338C77.9146 149.782 76.4725 149.497 74.9102 149.497C72.0111 149.497 69.6076 150.428 67.6848 152.306C66.8736 153.102 66.2277 153.974 65.762 154.92C65.2964 153.989 64.6655 153.117 63.8693 152.336C61.9616 150.443 59.5881 149.497 56.7491 149.497C55.0065 149.497 53.3692 149.932 51.867 150.804C50.3649 151.675 49.1781 152.877 48.3069 154.409C47.4356 155.942 47 157.609 47 159.412C47 162.116 47.9614 164.415 49.8691 166.308C51.7769 168.201 54.1203 169.162 56.8993 169.162C59.6482 169.162 61.9616 168.216 63.8693 166.293C64.6655 165.497 65.2814 164.64 65.747 163.709C66.1226 164.49 66.5882 165.211 67.1741 165.887C69.0668 168.066 71.6505 169.162 74.9253 169.162C75.451 169.162 75.9768 169.132 76.4725 169.057L76.7429 167.224C76.2021 167.329 75.6313 167.39 75.0454 167.39C72.657 167.39 70.6891 166.623 69.1269 165.091C67.5646 163.559 66.7835 161.666 66.7835 159.382C66.7835 157.88 67.129 156.513 67.835 155.296C68.5411 154.094 69.5175 153.132 70.7943 152.411ZM63.7792 163.393C63.0882 164.61 62.1268 165.587 60.88 166.293C59.6332 166.999 58.2963 167.344 56.8392 167.344C54.661 167.344 52.7984 166.578 51.2661 165.046C49.7189 163.513 48.9528 161.636 48.9528 159.412C48.9528 157.91 49.2983 156.543 50.0043 155.326C50.6953 154.109 51.6717 153.132 52.9185 152.411C54.1653 151.69 55.4722 151.33 56.8542 151.33C58.2662 151.33 59.6032 151.69 60.85 152.411C62.1118 153.132 63.0882 154.094 63.7792 155.296C64.4702 156.498 64.8157 157.85 64.8157 159.322C64.8157 160.809 64.4702 162.176 63.7792 163.393Z" fill="#FE6F61"/>
<path d="M48.7425 175.271C49.794 175.271 50.485 176.083 50.485 177.134C50.485 178.186 49.794 178.997 48.7425 178.997C47.691 178.997 47 178.186 47 177.134C47 176.068 47.691 175.271 48.7425 175.271ZM48.7425 175.542C47.8713 175.542 47.3155 176.218 47.3155 177.119C47.3155 178.021 47.8713 178.697 48.7425 178.697C49.5987 178.697 50.1696 178.021 50.1696 177.119C50.1696 176.218 49.5987 175.542 48.7425 175.542ZM53.4293 177.435H52.6331V178.922H52.3327V175.331H53.6696C54.2855 175.331 54.7662 175.722 54.7662 176.383C54.7662 177.029 54.3005 177.405 53.7748 177.42L54.8113 178.922H54.4357L53.4293 177.435ZM53.6396 175.602H52.6331V177.149H53.6396C54.1203 177.149 54.4357 176.819 54.4357 176.368C54.4357 175.917 54.1203 175.602 53.6396 175.602ZM58.8671 178.036H56.9594L56.5988 178.922H56.2533L57.7255 175.331H58.101L59.5731 178.922H59.2276L58.8671 178.036ZM57.0495 177.75H58.777L57.9207 175.617L57.0495 177.75ZM61.4809 175.812V178.922H61.1804V175.331H61.4959L63.7491 178.396V175.331H64.0496V178.922H63.7491L61.4809 175.812ZM67.7149 175.271C68.3157 175.271 68.7363 175.512 69.0668 175.887L68.8415 176.053C68.5861 175.752 68.1805 175.557 67.7149 175.557C66.8737 175.557 66.2127 176.203 66.2127 177.134C66.2127 178.066 66.8586 178.712 67.7149 178.712C68.1956 178.712 68.5711 178.471 68.7664 178.276V177.42H67.3994V177.134H69.0668V178.396C68.7514 178.757 68.2707 178.997 67.6998 178.997C66.6784 178.997 65.8822 178.246 65.8822 177.134C65.8822 176.023 66.6934 175.271 67.7149 175.271ZM70.9295 175.331H73.2128V175.617H71.245V176.954H73.1827V177.239H71.245V178.667H73.2128V178.952H70.9295V175.331ZM77.3888 177.119C77.3888 176.008 78.2 175.256 79.2064 175.256C79.7923 175.256 80.2279 175.512 80.5283 175.887L80.273 176.053C80.0476 175.737 79.6571 175.527 79.2064 175.527C78.3652 175.527 77.7193 176.173 77.7193 177.104C77.7193 178.036 78.3652 178.682 79.2064 178.682C79.6421 178.682 80.0476 178.471 80.273 178.156L80.5283 178.321C80.2129 178.712 79.7923 178.967 79.2064 178.967C78.2 178.982 77.3888 178.231 77.3888 177.119ZM83.8331 175.271C84.8846 175.271 85.5756 176.083 85.5756 177.134C85.5756 178.186 84.8846 178.997 83.8331 178.997C82.7816 178.997 82.0906 178.186 82.0906 177.134C82.0906 176.068 82.7816 175.271 83.8331 175.271ZM83.8331 175.542C82.9618 175.542 82.406 176.218 82.406 177.119C82.406 178.021 82.9618 178.697 83.8331 178.697C84.6893 178.697 85.2602 178.021 85.2602 177.119C85.2602 176.218 84.7044 175.542 83.8331 175.542ZM87.4233 175.331H87.7387V177.54C87.7387 178.261 88.1143 178.712 88.8353 178.712C89.5563 178.712 89.9319 178.276 89.9319 177.54V175.331H90.2473V177.555C90.2473 178.441 89.7667 178.997 88.8503 178.997C87.934 178.997 87.4533 178.441 87.4533 177.555V175.331H87.4233ZM92.5006 175.812V178.922H92.2002V175.331H92.5156L94.7689 178.396V175.331H95.0693V178.922H94.7689L92.5006 175.812ZM97.9685 175.602H96.7968V175.316H99.4556V175.602H98.2839V178.922H97.9685V175.602ZM102.235 177.39L100.808 175.331H101.183L102.4 177.104L103.617 175.331H103.992L102.565 177.39V178.922H102.25L102.235 177.39ZM111.097 175.722L109.791 178.907H109.67L108.348 175.722V178.907H108.048V175.316H108.499L109.73 178.291L110.947 175.316H111.413V178.907H111.097V175.722ZM113.381 175.331H114.522C115.634 175.331 116.34 176.143 116.34 177.134C116.34 178.126 115.634 178.937 114.522 178.937H113.381V175.331ZM114.537 178.637C115.484 178.637 116.025 177.961 116.025 177.119C116.025 176.278 115.484 175.602 114.537 175.602H113.696V178.637H114.537Z" fill="#D6BEA5"/>
<rect x="9" y="98" width="145" height="4" rx="2" fill="#10B3F0"/>
</svg>
