<svg width="90" height="90" viewBox="0 0 90 90" fill="none" xmlns="http://www.w3.org/2000/svg">
<path d="M45 0C20.1687 0 0 20.1687 0 45C0 69.8313 20.1687 90 45 90C69.8313 90 90 69.8313 90 45C90 20.1687 69.8313 0 45 0ZM45 86.0964C22.3373 86.0964 3.90361 67.6626 3.90361 45C3.90361 22.3373 22.3373 3.90361 45 3.90361C67.6626 3.90361 86.0964 22.3373 86.0964 45C86.0964 67.6626 67.6626 86.0964 45 86.0964Z" fill="#10B3F0"/>
<path d="M68.4216 35.241H54.759V21.5783C54.759 20.494 53.8915 19.6265 52.8072 19.6265H37.1927C36.1084 19.6265 35.2409 20.494 35.2409 21.5783V35.241H21.5783C20.4939 35.241 19.6265 36.1084 19.6265 37.1928V52.8072C19.6265 53.8916 20.4939 54.759 21.5783 54.759H35.2409V68.4217C35.2409 69.506 36.1084 70.3735 37.1927 70.3735H52.8072C53.8915 70.3735 54.759 69.506 54.759 68.4217V54.759H68.4216C69.506 54.759 70.3735 53.8916 70.3735 52.8072V37.1928C70.265 36.1084 69.3975 35.241 68.4216 35.241ZM66.5783 50.8554H66.4698H52.8072C51.7229 50.8554 50.8554 51.7229 50.8554 52.8072V66.4699H39.1445V52.8072C39.1445 51.7229 38.2771 50.8554 37.1927 50.8554H23.5301V39.1446H37.1927C38.2771 39.1446 39.1445 38.2771 39.1445 37.1928V23.5301H50.9638V37.1928C50.9638 38.2771 51.8313 39.1446 52.9156 39.1446H66.5783V50.8554Z" fill="#10B3F0"/>
</svg>
