<svg width="171" height="200" viewBox="0 0 171 200" fill="none" xmlns="http://www.w3.org/2000/svg">
<path d="M96.1613 0C44.5584 0 21.3488 45.8316 21.3488 78.375V124.687C21.3488 129.404 28.4738 129.401 28.4738 124.687V78.375C28.4738 48.7884 49.4747 7.125 96.1613 7.125C142.848 7.125 163.849 48.7884 163.849 78.375V153.187C163.849 157.904 170.974 157.901 170.974 153.187V78.375C170.974 45.8316 147.761 0 96.1613 0Z" fill="#10B3F0"/>
<path d="M21.3488 163.875V185.25C21.3488 189.967 28.4738 189.963 28.4738 185.25V163.875C28.4738 159.158 21.3488 159.162 21.3488 163.875Z" fill="#10B3F0"/>
<path d="M108.035 128.863C101.284 134.897 91.0633 134.954 84.2589 128.987C80.7178 125.884 76.0152 131.232 79.5635 134.345C89.0789 142.678 103.354 142.61 112.787 134.171C116.296 131.029 111.551 125.713 108.035 128.863Z" fill="#10B3F0"/>
<path d="M167.411 192.375C134.782 192.375 125.352 167.402 124.732 152.902C137.846 141.602 144.643 124.527 145.84 116.326C150.29 113.929 160.286 106.95 160.286 92.625C160.286 83.9289 155.242 79.8641 149.599 78.7241V61.4709C149.599 54.0324 147.233 46.9751 142.759 41.0578C131.441 26.0811 113.685 17.8125 96.1612 17.8125C61.9577 17.8125 42.7237 42.5291 42.7237 61.4709V78.7241C37.0807 79.8641 32.0362 83.9289 32.0362 92.625C32.0362 106.95 42.029 113.929 46.4822 116.326C47.6827 124.524 54.48 141.602 67.59 152.899C66.9737 167.402 57.5437 192.375 24.9112 192.375C20.198 192.375 20.1945 199.5 24.9112 199.5C59.7169 199.5 71.9077 174.986 74.2982 157.772C80.4934 161.495 87.7573 163.875 96.1612 163.875C104.565 163.875 111.829 161.495 118.024 157.772C120.415 174.986 132.609 199.5 167.411 199.5C172.128 199.5 172.124 192.375 167.411 192.375ZM142.214 58.2041C134.333 50.6445 124.854 45.0621 114.686 41.9734C117.308 38.475 118.363 34.1751 117.273 29.6186C128.092 34.542 140.589 44.8091 142.214 58.2041ZM106.036 25.992C111.993 28.7743 112.164 37.0856 106.122 40.014C85.3383 36.6653 64.8469 44.061 50.1088 58.2041C50.6717 53.5444 52.3781 49.1447 55.2459 45.3542C68.3238 28.0547 85.6875 21.9272 106.036 25.992ZM53.4112 114C53.4112 112.532 52.5135 111.218 51.1455 110.68C51.0244 110.637 39.1612 105.849 39.1612 92.625C39.1612 90.8616 39.1612 85.5 46.2862 85.5C48.2527 85.5 49.8487 83.904 49.8487 81.9375V68.97C74.3908 38.8419 117.921 38.8313 142.474 68.97V81.9375C142.474 83.904 144.066 85.5 146.036 85.5C153.161 85.5 153.161 90.8616 153.161 92.625C153.161 105.717 141.654 110.491 141.177 110.68C139.813 111.218 138.911 112.532 138.911 114C138.911 122.461 125.164 156.75 96.1612 156.75C67.1589 156.75 53.4112 122.461 53.4112 114Z" fill="#10B3F0"/>
<path d="M134.594 96.4512C137.497 92.7284 131.865 88.3465 128.979 92.0693C125.114 97.0248 117.722 97.837 113.165 92.2938C110.18 88.6493 104.669 93.1773 107.661 96.8181C114.807 105.514 127.661 105.347 134.594 96.4512Z" fill="#10B3F0"/>
<path d="M84.6615 96.8144C87.6575 93.17 82.1428 88.6527 79.1574 92.2901C74.9002 97.4664 67.4689 97.3559 63.3435 92.0656C60.4543 88.3606 54.822 92.7211 57.7254 96.4475C64.6794 105.361 77.5294 105.5 84.6615 96.8144Z" fill="#10B3F0"/>
<path d="M112.876 77.9759C115.972 75.0013 122.631 74.8089 130.671 77.4558C135.146 78.92 137.376 72.1584 132.898 70.6871C118.163 65.8492 110.946 69.9603 107.942 72.8388C104.494 76.1519 109.538 81.1893 112.876 77.9759Z" fill="#10B3F0"/>
<path d="M61.6478 77.4557C69.6919 74.8087 76.3431 75.0011 79.4461 77.9758C82.7877 81.1856 87.8286 76.1482 84.3801 72.8351C81.3769 69.953 74.1451 65.849 59.4284 70.6833C54.9468 72.1546 57.1698 78.9198 61.6478 77.4557Z" fill="#10B3F0"/>
<path d="M39.1613 142.5V146.063C39.1613 150.779 46.2863 150.776 46.2863 146.063V142.5C46.2863 137.783 39.1613 137.787 39.1613 142.5Z" fill="#10B3F0"/>
<path d="M39.1613 163.875C39.1613 168.592 46.2863 168.588 46.2863 163.875V160.313C46.2863 155.596 39.1613 155.599 39.1613 160.313V163.875Z" fill="#10B3F0"/>
<path d="M49.8487 156.75H53.4112C58.1244 156.75 58.128 149.625 53.4112 149.625H49.8487C45.1355 149.625 45.132 156.75 49.8487 156.75Z" fill="#10B3F0"/>
<path d="M35.5987 149.625H32.0362C27.323 149.625 27.3195 156.75 32.0362 156.75H35.5987C40.3119 156.75 40.3155 149.625 35.5987 149.625Z" fill="#10B3F0"/>
<path d="M14.2238 135.375C16.1903 135.375 17.7863 133.783 17.7863 131.813V128.25C17.7863 123.533 10.6613 123.537 10.6613 128.25V131.813C10.6613 133.783 12.2573 135.375 14.2238 135.375Z" fill="#10B3F0"/>
<path d="M14.2238 142.5C12.2573 142.5 10.6613 144.092 10.6613 146.062V149.625C10.6613 154.342 17.7863 154.338 17.7863 149.625V146.062C17.7863 144.092 16.1903 142.5 14.2238 142.5Z" fill="#10B3F0"/>
<path d="M24.9113 142.5C29.6244 142.5 29.628 135.375 24.9113 135.375H21.3488C19.3823 135.375 17.7863 136.967 17.7863 138.938C17.7863 140.908 19.3823 142.5 21.3488 142.5H24.9113Z" fill="#10B3F0"/>
<path d="M7.09873 135.375H3.53623C-1.17696 135.375 -1.18052 142.5 3.53623 142.5H7.09873C9.06523 142.5 10.6612 140.908 10.6612 138.938C10.6612 136.967 9.06523 135.375 7.09873 135.375Z" fill="#10B3F0"/>
<path d="M153.161 156.75C153.161 154.78 151.569 153.188 149.599 153.188C147.629 153.188 146.036 154.78 146.036 156.75V160.312C146.036 165.029 153.161 165.026 153.161 160.312V156.75Z" fill="#10B3F0"/>
<path d="M153.161 178.125V174.563C153.161 169.846 146.036 169.849 146.036 174.563V178.125C146.036 182.842 153.161 182.838 153.161 178.125Z" fill="#10B3F0"/>
<path d="M156.724 171H160.286C165.003 171 164.999 163.875 160.286 163.875H156.724C152.007 163.875 152.011 171 156.724 171Z" fill="#10B3F0"/>
<path d="M142.474 163.875H138.911C134.194 163.875 134.198 171 138.911 171H142.474C147.19 171 147.187 163.875 142.474 163.875Z" fill="#10B3F0"/>
</svg>
